<svg xmlns="http://www.w3.org/2000/svg" viewBox="0 0 431.73 431.73"><defs><style>.a{fill:#39779b;}.b{fill:#37759a;}</style></defs><title>ARTOTHEK-about-rpi-icons</title><path class="a" d="M471.19,311.61V419.54a54.13,54.13,0,0,1-54,54H147.39a54.13,54.13,0,0,1-54-54V149.71a54.13,54.13,0,0,1,54-54H417.22a54.13,54.13,0,0,1,54,54V329c8.1,0,18.89-22.79,27-17.39V149.71c0-45.87-35.08-81-80.95-81H147.39c-45.87,0-81,35.08-81,81V419.54c0,45.87,35.08,81,81,81H417.22c45.87,0,80.95-35.08,80.95-81V284.63Z" transform="translate(-66.44 -68.76)"/><path class="b" d="M142.85,458.3h-3.8V435.5h-19v22.8h-7.6v-38h7.6v7.6h19v-7.6h7.6v38h-3.8Zm-3.8-38h-19v-7.6h19v7.6Z" transform="translate(-66.44 -68.76)"/><path class="b" d="M154.26,458.3h-3.8V412.7h34.2v7.6h7.6v7.6h-7.6v-7.6h-26.6v7.6h26.6v7.6h-3.8v7.6h7.6v7.6h-7.6v-7.6h-7.6v-7.6h-15.2v22.8h-3.8Zm38,0h-3.8v-7.6h7.6v7.6h-3.8Z" transform="translate(-66.44 -68.76)"/><path class="b" d="M218.86,458.3h-3.8v-38h-15.2v-7.6h38v7.6h-15.2v38h-3.8Z" transform="translate(-66.44 -68.76)"/><path class="b" d="M249.26,450.7h-7.6V420.3h7.6v30.4Zm30.4-30.4h-30.4v-7.6h30.4v7.6Zm-3.8,38h-26.6v-7.6h30.4v7.6h-3.8Zm3.8-7.6V420.3h7.6v30.4h-7.6Z" transform="translate(-66.44 -68.76)"/><path class="b" d="M310.07,458.3h-3.8v-38h-15.2v-7.6h38v7.6h-15.2v38h-3.8Z" transform="translate(-66.44 -68.76)"/><path class="b" d="M367.07,458.3h-3.8v-19h-22.8v19h-7.6V412.7h7.6v19h22.8v-19h7.6v45.6h-3.8Z" transform="translate(-66.44 -68.76)"/><path class="b" d="M408.87,458.3h-34.2V412.7h38v7.6h-30.4v7.6h11.4v7.6h-11.4v15.2h30.4v7.6h-3.8Z" transform="translate(-66.44 -68.76)"/><path class="b" d="M420.27,458.3h-3.8V412.7h7.6v19h11.4v7.6h7.6v7.6h-7.6v-7.6h-11.4v19h-3.8Zm15.2-26.6v-7.6h7.6v7.6h-7.6Zm7.6-7.6v-7.6h7.6v7.6h-7.6Zm3.8,34.2h-3.8V446.9h7.6v11.4h-3.8Z" transform="translate(-66.44 -68.76)"/><path class="b" d="M333.36,363.33c-4.6-7.12-10.17-11.75-18.14-14.37,0,0-6-3.09-21.71-3.09S271.8,349,271.8,349c-8,2.65-13.54,7.25-18.14,14.37-1.82,2.8-2.81,8.44-2.87,11.46,0,0.78,0,1.69,0,2.6V379c0,5.75,3.92,10.4,8.76,10.4h67.93c4.84,0,8.76-4.65,8.76-10.4v-1.61c0-.91,0-1.82,0-2.6-0.06-3-1-8.65-2.87-11.46m-63.8-56.89c0,13.32,8.3,32.88,23.95,32.88,15.37,0,23.94-19.56,23.94-32.88a23.94,23.94,0,1,0-47.88,0" transform="translate(-66.44 -68.76)"/><path class="b" d="M267.1,342.87a29.77,29.77,0,0,0-14.69-10.29s-5.62-2.89-20.29-2.89-20.3,2.89-20.3,2.89c-7.44,2.47-12.65,6.77-17,13.43-1.7,2.62-2.62,7.89-2.69,10.71,0,0.74,0,1.58,0,2.43v1.5c0,5.37,3.66,9.71,8.19,9.71h41c0.58-3.4,1.62-7.13,3.1-9.4C250.22,352,257.2,346.24,267.1,342.87Z" transform="translate(-66.44 -68.76)"/><path class="b" d="M232.12,323.56c14.36,0,22.37-18.29,22.37-30.73a22.38,22.38,0,1,0-44.75,0C209.74,305.27,217.5,323.56,232.12,323.56Z" transform="translate(-66.44 -68.76)"/><path class="b" d="M320,342.87a29.77,29.77,0,0,1,14.69-10.29s5.62-2.89,20.29-2.89,20.3,2.89,20.3,2.89c7.45,2.47,12.65,6.77,17,13.43,1.7,2.62,2.62,7.89,2.69,10.71,0,0.74,0,1.58,0,2.43v1.5c0,5.37-3.66,9.71-8.19,9.71h-41c-0.58-3.4-1.62-7.13-3.1-9.4C336.87,352,329.9,346.24,320,342.87Z" transform="translate(-66.44 -68.76)"/><path class="b" d="M355,323.56c-14.36,0-22.37-18.29-22.37-30.73a22.38,22.38,0,1,1,44.75,0C377.36,305.27,369.6,323.56,355,323.56Z" transform="translate(-66.44 -68.76)"/><path class="b" d="M484.13,233h-55c-2.14,0-3.86-1.36-3.86-3V139.06c0-1.68,1.73-3,3.86-3h55c2.14,0,3.86,1.36,3.86,3V230C488,231.67,486.27,233,484.13,233ZM433,227h47.32V142.1H433V227Z" transform="translate(-66.44 -68.76)"/><rect class="b" x="362.65" y="78.3" width="44.87" height="74.92"/><path class="b" d="M429.1,242.73h-63.9c-2.14,0-3.86-1.36-3.86-3V129.35c0-1.68,1.73-3,3.86-3h63.9c2.14,0,3.86,1.36,3.86,3V239.7C433,241.38,431.23,242.73,429.1,242.73Zm-60-6.08h56.17V132.39H369.06V236.66Z" transform="translate(-66.44 -68.76)"/><rect class="b" x="298.76" y="70.3" width="51.54" height="90.93"/><path class="b" d="M130.9,233h-55c-2.14,0-3.86-1.36-3.86-3V139.06c0-1.68,1.73-3,3.86-3h55c2.14,0,3.86,1.36,3.86,3V230C134.77,231.67,133,233,130.9,233ZM79.73,227H127V142.1H79.73V227Z" transform="translate(-66.44 -68.76)"/><rect class="b" x="19.61" y="78.3" width="44.87" height="74.92"/><path class="b" d="M194.8,242.73H130.9c-2.14,0-3.86-1.36-3.86-3V129.35c0-1.68,1.73-3,3.86-3h63.9c2.14,0,3.86,1.36,3.86,3V239.7C198.67,241.38,196.94,242.73,194.8,242.73Zm-60-6.08h56.17V132.39H134.77V236.66Z" transform="translate(-66.44 -68.76)"/><rect class="b" x="76.82" y="70.3" width="51.54" height="90.93"/><path class="b" d="M365.2,254.52H194.8c-2.14,0-3.86-1.36-3.86-3V117.56c0-1.68,1.73-3,3.86-3H365.2c2.14,0,3.86,1.36,3.86,3V251.48C369.06,253.16,367.33,254.52,365.2,254.52Zm-166.53-6.07H361.33V120.6H198.67V248.44Z" transform="translate(-66.44 -68.76)"/><rect class="b" x="143.36" y="60.59" width="140.41" height="110.35"/></svg>