<svg xmlns="http://www.w3.org/2000/svg" viewBox="0 0 431.73 431.73"><defs><style>.a{fill:#39779b;}.b{fill:#37759a;}</style></defs><title>BLOGS-about-rpi-icons</title><path class="a" d="M495.47,249.55a23,23,0,0,0,0-18.89l-18.89-18.89c-2.7-2.7-5.4-2.7-10.79-2.7-2.7,0-8.1,0-10.79,2.7l-145.71,143v37.78h43.17Z" transform="translate(-66.44 -68.76)"/><rect class="a" x="80.95" y="80.95" width="269.83" height="26.98"/><polygon class="a" points="80.95 161.9 331.89 161.9 350.78 143.01 350.78 134.92 80.95 134.92 80.95 161.9"/><rect class="a" x="80.95" y="296.82" width="134.92" height="26.98"/><polygon class="a" points="80.95 215.87 277.93 215.87 304.91 188.88 80.95 188.88 80.95 215.87"/><path class="a" d="M471.19,311.61V419.54a54.13,54.13,0,0,1-54,54H147.39a54.13,54.13,0,0,1-54-54V149.71a54.13,54.13,0,0,1,54-54H417.22a54.13,54.13,0,0,1,54,54v32.38c8.1,0,16.19,5.4,24.28,10.79l2.7,2.7V149.71c0-45.87-35.08-81-80.95-81H147.39c-45.87,0-81,35.08-81,81V419.54c0,45.87,35.08,81,81,81H417.22c45.87,0,80.95-35.08,80.95-81V284.63Z" transform="translate(-66.44 -68.76)"/><polygon class="a" points="80.95 269.83 223.96 269.83 226.66 267.13 250.94 242.85 80.95 242.85 80.95 269.83"/><path class="b" d="M198.39,457.3H170V408.68h32.41v8.1h8.1v12.15h-8.1V416.79H178.14v12.15h24.31V437h8.1v12.15h-8.1V437H178.14v12.15h24.31v8.1h-4.05Z" transform="translate(-66.44 -68.76)"/><path class="b" d="M247,457.3H214.6V408.68h8.1v40.51h28.36v8.1H247Z" transform="translate(-66.44 -68.76)"/><path class="b" d="M263.21,449.19h-8.1V416.79h8.1v32.41Zm32.41-32.41H263.21v-8.1h32.41v8.1Zm-4,40.51H263.21v-8.1h32.41v8.1h-4Zm4-8.1V416.79h8.1v32.41h-8.1Z" transform="translate(-66.44 -68.76)"/><path class="b" d="M315.87,449.19h-8.1V416.79h8.1v32.41Zm32.41-32.41H315.87v-8.1h36.46v8.1h-4.05Zm-8.1,40.51H315.87v-8.1h28.36v8.1h-4.05Zm4.05-8.1V433h-8.1v-8.1h16.2v24.31h-8.1Z" transform="translate(-66.44 -68.76)"/><path class="b" d="M364.48,424.89h-8.1v-8.1h8.1v8.1Zm16.2,32.41H356.38v-8.1h28.36v8.1h-4.05Zm8.1-40.51H364.48v-8.1h28.36v8.1h-4.05ZM384.74,433H364.48v-8.1h20.26V433Zm0,16.2V433h8.1v16.2h-8.1Z" transform="translate(-66.44 -68.76)"/></svg>